<svg width="161" height="21" viewBox="0 0 161 21" fill="none" xmlns="http://www.w3.org/2000/svg">
<path d="M6.78683 9.35089C6.66842 9.19577 6.47748 9.11393 6.28349 9.13515C6.0895 9.15636 5.92076 9.27755 5.83868 9.45459L1.02979 19.0694C0.940247 19.2479 0.949735 19.46 1.05486 19.6298C1.15998 19.7996 1.34567 19.9026 1.54535 19.902H8.24165C8.46113 19.9078 8.66335 19.7835 8.7572 19.585C10.1972 16.5924 9.32313 12.059 6.78683 9.35089Z" fill="#190041"/>
<path d="M10.3143 0.592385C7.86732 4.34377 7.58014 9.10755 9.55872 13.1257L12.8032 19.585C12.901 19.7799 13.1006 19.9027 13.3187 19.902H20.015C20.2131 19.8996 20.396 19.7953 20.499 19.6261C20.602 19.4568 20.6105 19.2465 20.5217 19.0694L11.292 0.592385C11.2018 0.404317 11.0117 0.284668 10.8032 0.284668C10.5946 0.284668 10.4045 0.404317 10.3143 0.592385Z" fill="#190041"/>
<path d="M88.8623 8.31371C88.8623 10.6841 89.9675 12.5863 94.2875 13.4189C96.8653 13.9582 97.4045 14.3759 97.4045 15.2352C97.4045 16.0944 96.8653 16.61 95.0342 16.61C92.8394 16.5704 90.6885 15.9881 88.7734 14.9152V18.7967C90.0742 19.4337 91.7927 20.1478 94.9957 20.1478C99.5142 20.1478 101.307 18.1359 101.307 15.1404M101.307 15.1404C101.307 12.3167 99.8105 10.9922 95.5853 10.0826C93.2534 9.56704 92.6875 9.05149 92.6875 8.30482C92.6875 7.37149 93.5231 6.98037 95.0579 6.98037C96.9246 6.98037 98.7646 7.5463 100.51 8.33149V4.63074C98.8367 3.86907 97.0144 3.49144 95.1764 3.52556C91.0016 3.52556 88.8416 5.34186 88.8416 8.31371" fill="#190041"/>
<path d="M146.898 3.77148V19.9019H150.335V7.6026L151.784 10.8678L156.647 19.9019H160.967V3.77148H157.53V14.1833L156.229 11.1611L152.324 3.77148H146.898Z" fill="#190041"/>
<path d="M121.281 3.77148H125.038V19.9019H121.281V3.77148Z" fill="#190041"/>
<path d="M116.949 15.1404C116.949 12.3167 115.452 10.9922 111.227 10.0826C108.895 9.56704 108.329 9.05149 108.329 8.30482C108.329 7.37149 109.165 6.98037 110.7 6.98037C112.566 6.98037 114.406 7.5463 116.152 8.33149V4.63074C114.479 3.86907 112.656 3.49144 110.818 3.52556C106.643 3.52556 104.483 5.34186 104.483 8.31371C104.483 10.6841 105.589 12.5863 109.909 13.4189C112.486 13.9582 113.026 14.3759 113.026 15.2352C113.026 16.0944 112.486 16.61 110.655 16.61C108.46 16.5704 106.31 15.9881 104.395 14.9152V18.7967C105.695 19.4337 107.414 20.1478 110.617 20.1478C115.135 20.1478 116.928 18.1359 116.928 15.1404" fill="#190041"/>
<path d="M59.6836 3.77148V19.9019H67.4051L68.6199 16.4174H63.4643V3.77148H59.6836Z" fill="#190041"/>
<path d="M44.4258 3.77148V7.25889H48.6006V19.9019H52.3813V7.25889H56.8495V3.77148H44.4258Z" fill="#190041"/>
<path d="M38.9431 3.77148H33.989L28.3594 19.9019H32.6705L33.4586 17.1848C35.4258 17.7641 37.5182 17.7641 39.4853 17.1848L40.2823 19.9019H44.5786L38.9431 3.77148ZM36.466 14.2782C35.7641 14.2791 35.0656 14.1793 34.392 13.9819L36.466 6.93889L38.5401 13.9819C37.8665 14.1793 37.168 14.2791 36.466 14.2782Z" fill="#190041"/>
<path d="M80.7126 3.77173H75.7585L70.1289 19.9021H74.4252L75.2282 17.1851C77.1916 17.762 79.2796 17.762 81.243 17.1851L82.04 19.9021H86.3363L80.7126 3.77173ZM78.2356 14.2784C77.5336 14.2794 76.8351 14.1796 76.1615 13.9821L78.2356 6.93914L80.3096 13.9821C79.636 14.1796 78.9375 14.2794 78.2356 14.2784Z" fill="#190041"/>
<path d="M138.572 3.77148H133.618L127.988 19.9019H132.285L133.088 17.1848C135.051 17.7618 137.139 17.7618 139.102 17.1848L139.899 19.9019H144.196L138.572 3.77148ZM136.095 14.2782C135.393 14.2791 134.694 14.1793 134.021 13.9819L136.095 6.93889L138.169 13.9819C137.495 14.1793 136.797 14.2791 136.095 14.2782Z" fill="#190041"/>
</svg>
