<svg width="140" height="27" viewBox="0 0 140 27" fill="none" xmlns="http://www.w3.org/2000/svg">
<path d="M132.52 22.4208C132.52 20.4212 134.172 18.7988 136.207 18.7988C138.243 18.7988 139.893 20.4212 139.893 22.4208C139.893 24.4205 138.243 26.0418 136.207 26.0418C134.172 26.0418 132.52 24.4205 132.52 22.4208Z" fill="#190041"/>
<path d="M14.9218 12.8289C14.9218 10.5348 14.4705 8.83276 13.5679 7.72395C12.6641 6.61618 11.2952 6.06282 9.45467 6.06282H7.49682V20.0917H8.99485C11.0392 20.0917 12.5372 19.4965 13.4911 18.3017C14.4438 17.1091 14.9218 15.2844 14.9218 12.8289ZM21.9041 12.5899C21.9041 16.7695 20.7603 19.9901 18.4727 22.2507C16.1851 24.5123 12.9693 25.6432 8.82405 25.6432H0.769531V0.598389H9.38639C13.3833 0.598389 16.4689 1.62651 18.6434 3.68169C20.8169 5.73793 21.9041 8.70595 21.9041 12.5899Z" fill="#190041"/>
<path d="M44.2148 25.6427H50.6241V0.493164H44.2148V25.6427Z" fill="#190041"/>
<path d="M59.6296 16.2617C59.6296 17.8652 59.843 19.0882 60.2688 19.9288C60.6956 20.7703 61.4103 21.1906 62.4154 21.1906C63.4098 21.1906 64.113 20.7703 64.5227 19.9288C64.9325 19.0882 65.1362 17.8652 65.1362 16.2617C65.1362 14.6666 64.9292 13.4635 64.5142 12.6512C64.0981 11.8369 63.3885 11.4292 62.3824 11.4292C61.3987 11.4292 60.6956 11.8348 60.2688 12.6418C59.843 13.4498 59.6296 14.6561 59.6296 16.2617ZM71.6597 16.2617C71.6597 19.3167 70.8445 21.6999 69.2099 23.4082C67.5764 25.1175 65.2898 25.9727 62.3504 25.9727C59.5315 25.9727 57.2876 25.0987 55.6221 23.3506C53.9544 21.6025 53.1211 19.2402 53.1211 16.2617C53.1211 13.2161 53.9374 10.8497 55.572 9.16234C57.2065 7.47501 59.4983 6.63135 62.4496 6.63135C64.2731 6.63135 65.8863 7.02226 67.2841 7.80305C68.6828 8.58383 69.7627 9.70208 70.5213 11.1588C71.2809 12.6135 71.6597 14.3155 71.6597 16.2617Z" fill="#190041"/>
<path d="M74.2031 25.643H80.6135V16.0179V6.96191H74.2031V25.643Z" fill="#190041"/>
<path d="M74.2031 4.70212H80.6135V0.492188H74.2031V4.70212Z" fill="#190041"/>
<path d="M93.6004 20.8783C94.4658 20.8783 95.4965 20.6624 96.6989 20.2337V24.9341C95.8347 25.3072 95.0131 25.5745 94.2321 25.7327C93.451 25.8931 92.5345 25.9727 91.4857 25.9727C89.3336 25.9727 87.7823 25.4414 86.8294 24.3808C85.8809 23.3202 85.4051 21.6915 85.4051 19.4938V11.7929H83.1602V6.96356H85.4051V2.19293L91.8645 1.08936V6.96356H95.9542V11.7929H91.8645V19.0641C91.8645 20.2735 92.4438 20.8783 93.6004 20.8783Z" fill="#190041"/>
<path d="M108.437 20.8783C109.303 20.8783 110.334 20.6624 111.536 20.2337V24.9341C110.673 25.3072 109.85 25.5745 109.069 25.7327C108.287 25.8931 107.374 25.9727 106.323 25.9727C104.171 25.9727 102.619 25.4414 101.669 24.3808C100.718 23.3202 100.242 21.6915 100.242 19.4938V11.7929H97.9961V6.96356H100.242V2.12062L106.7 1.08936V6.96356H110.792V11.7929H106.7V19.0641C106.7 20.2735 107.28 20.8783 108.437 20.8783Z" fill="#190041"/>
<path d="M119.622 13.9859C119.71 12.963 120.008 12.2136 120.515 11.7347C121.025 11.2568 121.655 11.0178 122.408 11.0178C123.23 11.0178 123.883 11.2861 124.367 11.8269C124.855 12.3646 125.109 13.0846 125.129 13.9859H119.622ZM128.662 8.83375C127.138 7.36651 124.976 6.63184 122.18 6.63184C119.24 6.63184 116.978 7.4755 115.393 9.16283C113.808 10.8502 113.016 13.2711 113.016 16.4257C113.016 19.4807 113.872 21.8367 115.582 23.4904C117.292 25.1442 119.694 25.9722 122.787 25.9722C124.272 25.9722 125.55 25.8726 126.622 25.6745C127.686 25.4786 128.717 25.1243 129.717 24.6129L128.732 20.403C128.006 20.6943 127.314 20.9186 126.661 21.0664C125.718 21.2812 124.683 21.3891 123.556 21.3891C122.321 21.3891 121.346 21.0926 120.631 20.4994C119.916 19.9051 119.535 19.0856 119.491 18.0417H130.948V15.1733C130.948 12.4138 130.186 10.2999 128.662 8.83375Z" fill="#190041"/>
<path d="M30.4114 13.9859C30.4989 12.963 30.7966 12.2136 31.3044 11.7347C31.8134 11.2568 32.4439 11.0178 33.1983 11.0178C34.0177 11.0178 34.6707 11.2861 35.1562 11.8269C35.6438 12.3646 35.8966 13.0846 35.9191 13.9859H30.4114ZM39.4518 8.83375C37.9271 7.36651 35.7665 6.63184 32.9689 6.63184C30.0283 6.63184 27.7674 7.4755 26.1829 9.16283C24.5985 10.8502 23.8047 13.2711 23.8047 16.4257C23.8047 19.4807 24.6604 21.8367 26.3718 23.4904C28.0811 25.1442 30.4828 25.9722 33.576 25.9722C35.0612 25.9722 36.3395 25.8726 37.4107 25.6745C38.4755 25.4786 39.5062 25.1243 40.507 24.6129L39.5212 20.403C38.7945 20.6943 38.1031 20.9186 37.4512 21.0664C36.5059 21.2812 35.4721 21.3891 34.3452 21.3891C33.1108 21.3891 32.1346 21.0926 31.4197 20.4994C30.7037 19.9051 30.3239 19.0856 30.2802 18.0417H41.7373V15.1733C41.7373 12.4138 40.9754 10.2999 39.4518 8.83375Z" fill="#190041"/>
</svg>
