<svg width="128" height="32" viewBox="0 0 128 32" fill="none" xmlns="http://www.w3.org/2000/svg">
<path fill-rule="evenodd" clip-rule="evenodd" d="M47.995 21.031H45V11.968H47.995C49.253 11.968 50.29 12.388 51.081 13.221C51.873 14.061 52.268 15.156 52.268 16.504C52.268 17.844 51.873 18.947 51.081 19.779C50.29 20.611 49.253 21.031 47.995 21.031ZM47.995 9H42V24H47.995C50.053 24 51.793 23.273 53.173 21.837C54.553 20.401 55.257 18.606 55.257 16.504C55.257 14.394 54.554 12.599 53.173 11.163C51.793 9.727 50.053 9 47.995 9ZM62.239 21.445C61.448 21.445 60.771 21.181 60.252 20.645C59.725 20.109 59.452 19.423 59.452 18.597C59.452 17.779 59.725 17.093 60.252 16.557C60.771 16.021 61.448 15.757 62.239 15.757C63.03 15.757 63.707 16.021 64.234 16.557C64.771 17.093 65.044 17.779 65.044 18.597C65.044 19.423 64.771 20.109 64.234 20.645C63.707 21.181 63.03 21.445 62.239 21.445ZM66.3 14.553C65.193 13.454 63.83 12.9 62.239 12.9C60.648 12.9 59.285 13.454 58.186 14.553C57.087 15.652 56.533 17.014 56.533 18.597C56.533 20.188 57.087 21.551 58.186 22.65C59.285 23.748 60.648 24.302 62.239 24.302C63.83 24.302 65.193 23.748 66.3 22.65C67.4 21.55 67.962 20.188 67.962 18.597C67.962 17.014 67.399 15.652 66.3 14.553ZM79.464 13L75.5 24H72L68 13H71.209L73.723 20.261L76.255 13H79.464ZM82.524 17.515C82.691 16.909 82.99 16.425 83.43 16.083C83.896 15.722 84.493 15.537 85.206 15.537C85.803 15.537 86.348 15.713 86.823 16.057C87.263 16.381 87.57 16.865 87.729 17.515H82.524ZM85.206 12.9C83.544 12.9 82.164 13.445 81.1 14.527C80.036 15.617 79.5 16.979 79.5 18.597C79.5 20.232 80.045 21.603 81.118 22.685C82.198 23.757 83.641 24.302 85.417 24.302C87.483 24.302 89.065 23.529 90.12 21.99L90.181 21.911L87.817 20.549L87.773 20.609C87.253 21.296 86.471 21.639 85.461 21.639C83.905 21.639 82.955 21.041 82.577 19.819H90.551L90.568 19.739C90.638 19.344 90.674 18.957 90.674 18.597C90.674 16.997 90.154 15.634 89.126 14.544C88.098 13.454 86.779 12.9 85.206 12.9ZM96.304 16.029V20.363C96.304 20.705 96.383 20.952 96.55 21.101C96.717 21.259 96.972 21.347 97.306 21.374C97.456 21.382 97.622 21.382 97.798 21.382C98.044 21.382 98.317 21.374 98.616 21.356H98.704V24.011L98.624 24.02C98.114 24.081 97.631 24.108 97.2 24.108C96.031 24.108 95.152 23.897 94.58 23.475C93.78 22.895 93.385 21.848 93.385 20.363V16.029H91.33V13.333H93.385V11.088L96.304 10.2V13.333H98.33V16.029H96.304ZM105.1 21.515C104.274 21.515 103.588 21.235 103.06 20.698C102.525 20.162 102.252 19.45 102.252 18.597C102.252 17.753 102.525 17.041 103.061 16.505C103.588 15.959 104.283 15.687 105.101 15.687C105.919 15.687 106.613 15.959 107.158 16.505C107.694 17.049 107.966 17.753 107.966 18.597C107.966 19.45 107.694 20.162 107.158 20.698C106.613 21.234 105.927 21.515 105.1 21.515ZM108 13V14.305C107.174 13.373 106.006 12.9 104.59 12.9C103.157 12.9 101.9 13.454 100.88 14.553C99.852 15.652 99.333 17.014 99.333 18.597C99.333 20.188 99.853 21.551 100.881 22.65C101.901 23.749 103.149 24.302 104.591 24.302C106.006 24.302 107.174 23.727 108 22.795V24H111V13H108ZM113.178 10.989C113.012 10.8303 112.881 10.6392 112.792 10.4277C112.702 10.2161 112.658 9.98854 112.66 9.759C112.66 9.291 112.833 8.875 113.178 8.529C113.524 8.173 113.93 8 114.397 8C114.881 8 115.296 8.173 115.641 8.528C115.987 8.875 116.16 9.291 116.16 9.758C116.16 10.227 115.987 10.642 115.641 10.988C115.479 11.1525 115.285 11.2827 115.071 11.3707C114.857 11.4586 114.628 11.5026 114.397 11.5C114.17 11.5011 113.945 11.4564 113.735 11.3686C113.526 11.2808 113.336 11.1517 113.178 10.989ZM113 24H116V13H113V24ZM118 24H121V8H118V24Z" fill="#190041"/>
<path fill-rule="evenodd" clip-rule="evenodd" d="M30 20L23 24V16L16 11.956L23 8L30 12V20ZM15.999 12L8.999 16V8L2 4L9 0L15.999 4V12ZM15.999 28L8.999 32L9 24L2 20L8.999 16L15.999 20V28Z" fill="#190041"/>
</svg>
