<svg width="161" height="54" viewBox="0 0 161 54" fill="none" xmlns="http://www.w3.org/2000/svg">
<mask id="mask0_1_35573" style="mask-type:luminance" maskUnits="userSpaceOnUse" x="0" y="0" width="161" height="54">
<path d="M160.969 0.947266H0.96875V53.6897H160.969V0.947266Z" fill="white"/>
</mask>
<g mask="url(#mask0_1_35573)">
<path d="M145.967 35.6253C141.499 35.6253 138.349 32.1384 138.349 27.5528C138.349 22.9671 141.499 19.4802 145.967 19.4802C150.436 19.4802 153.498 22.9671 153.498 27.5528C153.498 32.1384 150.392 35.6253 145.967 35.6253ZM145.249 40.4307C148.853 40.4307 151.915 39.0242 153.849 36.0795C154.215 38.9363 156.281 39.9765 158.889 39.9765H160.969V35.4495H160.076C158.596 35.4495 158.23 34.7316 158.23 33.0468V15.1436H153.454V18.821C151.827 16.2425 148.765 14.6895 145.249 14.6895C138.979 14.6895 133.221 19.9491 133.221 27.5528C133.221 35.1565 138.993 40.4161 145.249 40.4161V40.4307ZM120.651 34.2188C120.651 38.2917 123.171 39.9765 126.189 39.9765H132.005V35.4495H127.771C126.013 35.4495 125.647 34.7756 125.647 33.0468V19.6707H132.005V15.1436H125.647V6.80737H120.651V34.2188ZM97.898 39.9765H102.894V29.3255H104.564L113.076 39.9765H119.391L108.535 26.4686L116.871 15.1436H111.245L104.432 24.7105H102.894V6.80737H97.898V39.9765ZM81.6797 14.6895C74.6914 14.6895 68.9336 19.9491 68.9336 27.5528C68.9336 35.1565 74.706 40.4161 81.6797 40.4161C88.6535 40.4161 94.4258 35.1565 94.4258 27.5528C94.4258 19.9491 88.6535 14.6895 81.6797 14.6895ZM81.6797 35.6253C77.2113 35.6253 74.0614 32.1384 74.0614 27.5528C74.0614 22.9671 77.2113 19.4802 81.6797 19.4802C86.1482 19.4802 89.2981 22.9671 89.2981 27.5528C89.2981 32.1384 86.1482 35.6253 81.6797 35.6253Z" fill="#190041"/>
<path fill-rule="evenodd" clip-rule="evenodd" d="M29.9783 1.32796L28.8941 14.6894C28.3813 14.6308 27.8685 14.6015 27.341 14.6015C26.6818 14.6015 26.0371 14.6454 25.4072 14.748L24.7918 8.27236C24.7772 8.06726 24.9384 7.89146 25.1434 7.89146H26.2423L25.7148 1.34256C25.7002 1.13746 25.8613 0.96167 26.0518 0.96167H29.6413C29.8463 0.96167 30.0076 1.13746 29.9783 1.34256V1.32796ZM20.924 1.98726C20.8654 1.79676 20.6603 1.67956 20.4699 1.75286L17.1003 2.98346C16.9099 3.05676 16.8219 3.27646 16.9099 3.45226L19.6495 9.42976L18.6092 9.81066C18.4188 9.88396 18.3309 10.1037 18.4188 10.2795L21.2171 16.1545C22.2281 15.5977 23.3268 15.1729 24.4842 14.9092L20.9387 1.98726H20.924ZM12.6611 5.70846L20.4114 16.6379C19.4298 17.2826 18.5361 18.0444 17.7743 18.9234L13.1299 14.3524C12.9834 14.2059 12.9981 13.9715 13.1446 13.8397L13.9944 13.1364L9.37937 8.46286C9.23286 8.31636 9.24751 8.08186 9.40867 7.95006L12.1483 5.64986C12.3095 5.51806 12.5293 5.54736 12.6465 5.70846H12.6611ZM6.15622 12.0376C5.99506 11.9204 5.76065 11.979 5.6581 12.1548L3.87072 15.2608C3.76816 15.4366 3.84141 15.6563 4.01722 15.7442L9.9654 18.5572L9.40867 19.5095C9.30612 19.6853 9.37937 19.9197 9.56983 19.9929L15.4887 22.7033C15.9136 21.6045 16.485 20.579 17.1882 19.656L6.15622 12.0376ZM1.77567 20.4764C1.80497 20.2713 2.01008 20.1541 2.20054 20.198L15.1664 23.5824C14.8295 24.6812 14.6389 25.8386 14.6096 27.0399L8.11941 26.5125C7.9143 26.4978 7.76779 26.3074 7.81175 26.1023L8.00221 25.0181L1.45336 24.4028C1.24825 24.3881 1.11639 24.1977 1.14569 23.9926L1.76102 20.4618L1.77567 20.4764ZM1.2922 29.2375C1.08709 29.2522 0.955232 29.4426 0.984533 29.6477L1.61451 33.1785C1.64381 33.3837 1.84892 33.5009 2.03938 33.4569L8.39777 31.8014L8.58823 32.8855C8.61753 33.0906 8.82264 33.2078 9.0131 33.1639L15.2836 31.4351C14.9173 30.351 14.683 29.1936 14.6243 28.0069L1.27755 29.2375H1.2922ZM3.37259 38.526C3.27004 38.3502 3.34329 38.1305 3.5191 38.0426L15.6206 32.2995C16.0747 33.3837 16.6901 34.3946 17.4226 35.3029L12.1191 39.0828C11.9579 39.2 11.7234 39.156 11.6209 38.9802L11.0641 38.0133L5.6581 41.7492C5.49694 41.8664 5.26253 41.8078 5.15997 41.632L3.35794 38.526H3.37259ZM18.038 36.0061L8.61753 45.5437C8.47103 45.6902 8.48568 45.9246 8.64683 46.0565L11.4011 48.3566C11.5623 48.4885 11.7821 48.4592 11.8993 48.298L15.7085 42.9359L16.5582 43.6538C16.7193 43.7856 16.9537 43.7563 17.0709 43.5805L20.763 38.2184C19.7667 37.603 18.8438 36.8559 18.0525 36.0061H18.038ZM16.1772 51.3161C15.9868 51.2428 15.8989 51.0231 15.9868 50.8473L21.5688 38.6579C22.5942 39.1853 23.7078 39.5809 24.8652 39.8007L23.2243 46.1004C23.1804 46.2909 22.9606 46.4081 22.7701 46.3349L21.7299 45.9539L19.9865 52.2977C19.9279 52.4881 19.7227 52.6053 19.5322 52.5321L16.1627 51.3014L16.1772 51.3161ZM25.7882 39.9618L24.704 53.3232C24.6894 53.5283 24.8505 53.7041 25.041 53.7041H28.6304C28.8354 53.7041 28.9967 53.5283 28.9674 53.3232L28.4398 46.7744H29.5387C29.7439 46.7744 29.905 46.5986 29.8904 46.3935L29.275 39.9179C28.6451 40.0204 28.0003 40.0644 27.341 40.0644C26.8136 40.0644 26.3008 40.0351 25.7882 39.9618ZM38.71 3.78926C38.7979 3.59876 38.71 3.39366 38.5196 3.32046L35.1499 2.08976C34.9594 2.01656 34.7544 2.13376 34.6958 2.32416L32.9524 8.66796L31.9121 8.28706C31.7216 8.21376 31.5166 8.33096 31.458 8.52146L29.8171 14.8213C30.9892 15.0557 32.0879 15.4512 33.1134 15.964L38.71 3.78926ZM46.0647 9.10746L36.6442 18.6451C35.8531 17.7953 34.9447 17.0482 33.9338 16.4328L37.6259 11.0707C37.743 10.9095 37.9774 10.8656 38.1386 10.9974L38.9883 11.7153L42.7976 6.35316C42.9147 6.19196 43.1492 6.16266 43.2957 6.29456L46.05 8.59466C46.2111 8.72656 46.2112 8.96096 46.0793 9.10746H46.0647ZM51.1631 16.6086C51.3535 16.5207 51.4122 16.301 51.3096 16.1252L49.5075 13.0192C49.405 12.8434 49.1707 12.7995 49.0094 12.902L43.6034 16.6379L43.0466 15.6856C42.944 15.5098 42.7097 15.4512 42.5485 15.5831L37.2449 19.363C37.9774 20.2713 38.5782 21.2822 39.047 22.3663L51.1484 16.6233L51.1631 16.6086ZM53.0676 21.4727L53.683 25.0035C53.7123 25.2086 53.5805 25.3844 53.3754 25.4137L40.0285 26.659C39.9699 25.4576 39.7355 24.3149 39.3693 23.2307L45.6398 21.502C45.8302 21.4434 46.0354 21.5752 46.0647 21.7803L46.2551 22.8645L52.6135 21.2089C52.8039 21.165 53.009 21.2822 53.0383 21.4873L53.0676 21.4727ZM52.467 34.4385C52.6574 34.4825 52.8625 34.3653 52.8918 34.1601L53.5073 30.6293C53.5366 30.4242 53.4047 30.2484 53.1996 30.2191L46.6507 29.6038L46.8411 28.5196C46.8704 28.3145 46.7386 28.1387 46.5335 28.1094L40.0433 27.582C40.014 28.7833 39.8234 29.9407 39.4865 31.0395L52.4524 34.4239L52.467 34.4385ZM49.0094 42.4964C48.9068 42.6722 48.6724 42.7161 48.5113 42.6136L37.4794 34.9952C38.1826 34.0722 38.7539 33.0467 39.1788 31.9479L45.0978 34.6583C45.2882 34.7462 45.3615 34.9659 45.2589 35.1417L44.7021 36.094L50.6503 38.907C50.8261 38.9949 50.8993 39.2146 50.7968 39.3904L49.0094 42.4964ZM34.2562 37.9986L42.0065 48.928C42.1236 49.0892 42.3581 49.1185 42.5046 48.9866L45.2443 46.6865C45.4053 46.5546 45.4053 46.3202 45.2735 46.1737L40.6586 41.5001L41.5083 40.7969C41.6695 40.665 41.6694 40.4306 41.5229 40.2841L36.8787 35.7131C36.1021 36.5922 35.2232 37.3686 34.2416 37.9986H34.2562ZM34.1829 52.8837C33.9925 52.957 33.7873 52.8398 33.7287 52.6493L30.1833 39.7274C31.3407 39.4637 32.4396 39.0388 33.4505 38.4821L36.2487 44.357C36.3366 44.5475 36.2487 44.7672 36.0583 44.8258L35.0181 45.2067L37.7578 51.1842C37.8456 51.3747 37.7577 51.5798 37.5672 51.653L34.1977 52.8837H34.1829Z" fill="#190041"/>
</g>
</svg>
