<svg width="161" height="46" viewBox="0 0 161 46" fill="none" xmlns="http://www.w3.org/2000/svg">
<path fill-rule="evenodd" clip-rule="evenodd" d="M56.1989 25.3781C54.8387 24.6264 54.1228 24.0179 54.1228 23.1589C54.1228 22.0492 55.0892 21.3692 56.6284 21.3692C58.4181 21.3692 59.9931 22.1208 59.9931 22.1208L61.2458 18.2909C61.2458 18.2909 60.1004 17.396 56.7 17.396C51.9752 17.396 48.6821 20.1164 48.6821 23.9105C48.6821 26.0582 50.2212 27.7047 52.2615 28.8859C53.908 29.8166 54.4807 30.4967 54.4807 31.4631C54.4807 32.5011 53.6575 33.3244 52.1183 33.3244C49.8275 33.3244 47.6799 32.1432 47.6799 32.1432L46.3555 35.9732C46.3555 35.9732 48.3599 37.2976 51.6888 37.2976C56.5568 37.2976 60.0288 34.8994 60.0288 30.6041C60.1004 28.2416 58.3107 26.5951 56.1989 25.3781Z" fill="#190041"/>
<path fill-rule="evenodd" clip-rule="evenodd" d="M75.6002 17.3242C73.202 17.3242 71.3407 18.4696 69.8731 20.1877L69.8015 20.1519L71.8776 9.27051H66.4727L61.2109 36.9394H66.6159L68.4056 27.4897C69.1215 23.9103 70.947 21.7269 72.6651 21.7269C73.8821 21.7269 74.3474 22.5501 74.3474 23.7314C74.3474 24.483 74.2758 25.3779 74.0968 26.1296L72.0566 36.9752H77.4615L79.5734 25.8074C79.8239 24.6262 79.9671 23.2302 79.9671 22.2638C80.0029 19.1497 78.3921 17.3242 75.6002 17.3242Z" fill="#190041"/>
<path d="M92.2441 17.3242C85.7295 17.3242 81.3984 23.1945 81.3984 29.7448C81.3984 33.9327 83.9756 37.3332 88.8436 37.3332C95.2508 37.3332 99.5461 31.6061 99.5461 24.9126C99.5819 21.011 97.3268 17.3242 92.2441 17.3242ZM89.5953 33.1452C87.734 33.1452 86.9823 31.5703 86.9823 29.6016C86.9823 26.4875 88.5931 21.4405 91.5282 21.4405C93.4611 21.4405 94.0696 23.0871 94.0696 24.6978C94.0696 28.0625 92.4588 33.1452 89.5953 33.1452Z" fill="#190041"/>
<path d="M113.434 17.3245C109.783 17.3245 107.707 20.5459 107.707 20.5459H107.635L107.957 17.6466H103.161C102.91 19.6153 102.481 22.5862 102.051 24.8412L98.293 44.6712H103.698L105.201 36.6533H105.309C105.309 36.6533 106.418 37.3692 108.494 37.3692C114.866 37.3692 119.018 30.8547 119.018 24.2685C119.018 20.5817 117.407 17.3245 113.434 17.3245ZM108.28 33.2529C106.884 33.2529 106.06 32.4654 106.06 32.4654L106.955 27.4184C107.599 24.0538 109.353 21.7987 111.215 21.7987C112.861 21.7987 113.362 23.3379 113.362 24.7697C113.362 28.2417 111.286 33.2529 108.28 33.2529Z" fill="#190041"/>
<path fill-rule="evenodd" clip-rule="evenodd" d="M126.751 9.52148C125.033 9.52148 123.637 10.8817 123.637 12.6714C123.637 14.2821 124.639 15.3917 126.178 15.3917H126.25C127.932 15.3917 129.4 14.2463 129.435 12.2418C129.471 10.6669 128.397 9.52148 126.751 9.52148Z" fill="#190041"/>
<path fill-rule="evenodd" clip-rule="evenodd" d="M119.16 36.9396H124.601L128.288 17.7539H122.811L119.16 36.9396Z" fill="#190041"/>
<path fill-rule="evenodd" clip-rule="evenodd" d="M142.032 17.6823H138.273L138.452 16.7875C138.775 14.9262 139.848 13.2796 141.674 13.2796C142.64 13.2796 143.392 13.566 143.392 13.566L144.466 9.34228C144.466 9.34228 143.535 8.87695 141.531 8.87695C139.598 8.87695 137.701 9.41387 136.233 10.6667C134.372 12.2416 133.513 14.4966 133.083 16.7875L132.94 17.6823H130.434L129.647 21.7629H132.153L129.289 36.9038H134.694L137.558 21.7629H141.28L142.032 17.6823Z" fill="#190041"/>
<path fill-rule="evenodd" clip-rule="evenodd" d="M155.061 17.7539C155.061 17.7539 151.661 26.2729 150.157 30.9262H150.086C149.978 29.4228 148.761 17.7539 148.761 17.7539H143.07L146.327 35.3646C146.399 35.7584 146.363 36.0089 146.22 36.2595C145.576 37.4765 144.537 38.6577 143.285 39.5168C142.282 40.2684 141.137 40.7338 140.242 41.0559L141.746 45.6376C142.855 45.387 145.11 44.4922 147.043 42.7025C149.513 40.3758 151.804 36.8322 154.13 31.9642L160.752 17.7539H155.061Z" fill="#190041"/>
<path fill-rule="evenodd" clip-rule="evenodd" d="M26.7422 44.4923L40.1292 41.593C40.1292 41.593 35.297 8.91291 35.2612 8.69815C35.2254 8.48338 35.0464 8.34021 34.8675 8.34021C34.6885 8.34021 31.288 8.08965 31.288 8.08965C31.288 8.08965 28.9256 5.72723 28.6393 5.47667C28.5677 5.40508 28.4961 5.36929 28.4245 5.3335L26.7422 44.4923Z" fill="#190041"/>
<path d="M27.8502 5.26174C27.8144 5.26174 27.7428 5.29754 27.707 5.29754C27.6712 5.29754 27.1701 5.44072 26.3826 5.69128C25.5951 3.40045 24.1992 1.28859 21.7294 1.28859C21.6578 1.28859 21.5862 1.28859 21.5146 1.28859C20.7987 0.393736 19.9397 0 19.188 0C13.4251 0 10.669 7.19463 9.80991 10.8456C7.59067 11.5257 5.97994 12.0268 5.80096 12.0984C4.54817 12.4922 4.51237 12.528 4.3692 13.7092C4.22602 14.5682 0.96875 39.8031 0.96875 39.8031L26.1321 44.528L27.8502 5.26174ZM21.2998 7.01566C21.2998 7.08725 21.2998 7.19463 21.2998 7.26622C19.9039 7.69575 18.3647 8.16107 16.8614 8.6264C17.7204 5.33333 19.3312 3.7226 20.7271 3.11409C21.0851 4.04474 21.2998 5.29754 21.2998 7.01566ZM19.009 1.53915C19.2596 1.53915 19.5101 1.61074 19.7607 1.78971C17.9352 2.64877 15.9307 4.83221 15.1075 9.19911C13.8905 9.59284 12.7092 9.95078 11.5996 10.2729C12.5661 6.94407 14.8927 1.53915 19.009 1.53915ZM20.0113 20.9754C20.0113 20.9754 18.5079 20.1879 16.7182 20.1879C14.0336 20.1879 13.9262 21.8702 13.9262 22.2998C13.9262 24.5906 19.9397 25.4855 19.9397 30.8904C19.9397 35.1499 17.2551 37.8702 13.6041 37.8702C9.23721 37.8702 7.01797 35.1499 7.01797 35.1499L8.19917 31.2841C8.19917 31.2841 10.49 33.2528 12.4229 33.2528C13.6757 33.2528 14.2126 32.2506 14.2126 31.5347C14.2126 28.528 9.273 28.3848 9.273 23.4452C9.273 19.2931 12.2439 15.2483 18.2931 15.2483C20.6198 15.2483 21.7652 15.9284 21.7652 15.9284L20.0113 20.9754ZM22.3021 2.86353C23.5907 3.00671 24.4139 4.47427 24.9509 6.12081C24.3066 6.33557 23.5907 6.55034 22.8032 6.80089C22.8032 6.65772 22.8032 6.51454 22.8032 6.33557C22.8032 4.9396 22.6242 3.79418 22.3021 2.86353Z" fill="#190041"/>
</svg>
