<svg width="81" height="96" viewBox="0 0 81 96" fill="none" xmlns="http://www.w3.org/2000/svg">
<path d="M21.3611 27.841C30.5531 28.747 34.7671 20.032 36.3781 12.274C36.8721 9.89603 37.0411 7.50403 37.0901 5.08203C37.1101 4.19703 37.1301 3.32003 37.0671 2.43603C37.0471 2.14403 37.0071 1.26603 37.0171 1.55903C37.1901 6.45703 36.9911 24.7 42.4241 27.467C45.6961 29.133 49.2701 27.687 52.4621 28.751C52.7371 28.844 52.0081 29.113 51.7691 29.281C50.1951 30.397 48.6471 31.544 47.2541 32.886C44.0621 35.962 41.9241 39.682 40.0141 43.636C38.5491 46.669 37.7341 49.823 36.6861 53C36.2951 54.188 35.9331 55.433 35.7351 56.67C35.6781 57.028 35.6421 58.11 35.5951 57.75C34.8201 51.561 37.3791 35.827 32.0451 31.28C30.3511 29.833 23.2341 28.875 21.3611 27.841ZM53.4371 57.376C59.9941 57.39 63.1701 54.088 65.9171 48.219C66.7371 46.467 67.3601 44.518 67.8271 42.641C67.9901 42.001 68.0721 41.343 68.1951 40.696C68.2751 40.269 68.1351 39.048 68.3811 39.406C70.4531 42.415 67.0781 51.08 70.1481 55.2C71.6291 57.19 74.0921 57.98 76.4691 58.234C77.1951 58.312 77.9251 58.352 78.6571 58.386C79.0221 58.403 79.9971 58.149 79.7551 58.425C77.2021 61.34 73.2641 62.74 70.7811 65.893C68.0391 69.373 66.4781 73.129 65.4471 77.41C65.1061 78.834 64.9601 80.308 64.7571 81.756C64.6451 82.558 64.5781 84.963 64.4461 84.164C63.2691 77.104 67.1811 67.138 62.1091 61.047C60.8821 59.577 54.6671 58.539 53.4371 57.376ZM1.20312 72.15C8.13812 72.221 10.3431 63.752 11.0661 58.322C11.2981 56.58 11.3501 54.812 11.4961 53.062C11.6091 51.712 11.7321 49.942 11.7381 49.982C12.9851 55.047 11.4201 61.645 15.1691 65.89C16.8141 67.755 19.4991 68.527 21.8861 68.79C23.0691 68.92 25.8111 67.872 25.4491 69.006C23.6361 74.712 18.7231 78.913 17.1891 85.096C16.6681 87.181 16.2271 89.286 16.0151 91.426C15.8551 93.031 15.8591 94.58 15.8521 94.496C15.1621 84.128 11.1881 75.989 1.20312 72.15Z" stroke="#190041" stroke-width="2" stroke-miterlimit="1.5" stroke-linecap="round" stroke-linejoin="round"/>
</svg>
